<svg height="59" viewBox="0 0 68 59" width="68" xmlns="http://www.w3.org/2000/svg" xmlns:xlink="http://www.w3.org/1999/xlink"><defs><path id="a" d="m0 0h17v24h-17z"/><filter id="b" height="237.5%" width="294.1%" x="-97.1%" y="-68.8%"><feOffset in="SourceAlpha" result="shadowOffsetOuter1"/><feGaussianBlur in="shadowOffsetOuter1" result="shadowBlurOuter1" stdDeviation="5.5"/><feColorMatrix in="shadowBlurOuter1" values="0 0 0 0 0 0 0 0 0 0 0 0 0 0 0 0 0 0 0.12 0"/></filter><path id="c" d="m0 0h36v24h-36z"/><filter id="d" height="237.5%" width="191.7%" x="-45.8%" y="-68.8%"><feOffset in="SourceAlpha" result="shadowOffsetOuter1"/><feGaussianBlur in="shadowOffsetOuter1" result="shadowBlurOuter1" stdDeviation="5.5"/><feColorMatrix in="shadowBlurOuter1" values="0 0 0 0 0 0 0 0 0 0 0 0 0 0 0 0 0 0 0.12 0"/></filter></defs><g fill="none"><g transform="translate(11 17)"><use fill="#000" filter="url(#b)" xlink:href="#a"/><use fill="#fff" xlink:href="#a"/></g><path d="m11 17h17v8h-17z" fill="#940917"/><path d="m11 25h17v8h-17z" fill="#cc9c00"/><path d="m11 33h17v8h-17z" fill="#940917"/><g transform="translate(21 11)"><use fill="#000" filter="url(#d)" xlink:href="#c"/><use fill="#fff" xlink:href="#c"/><path d="m0 0h36v8h-36z" fill="#c60b1e"/><path d="m0 8h36v8h-36z" fill="#ffc400"/><path d="m0 16h36v8h-36z" fill="#c60b1e"/><g fill="#000"><ellipse cx="35" cy="44" fill-opacity=".2" rx="12" ry="4"/><path d="m34 24h2v19c0 .552-.448 1-1 1s-1-.448-1-1z"/></g></g><path d="m28 41-7-6h7z" fill="#850814"/></g></svg>