<svg height="17" viewBox="0 0 15 17" width="15" xmlns="http://www.w3.org/2000/svg"><g fill-rule="evenodd" transform="matrix(-.98768834 -.15643447 -.15643447 .98768834 16.080921 2.265596)"><path d="m14.6630408 7.16299162c.8568023-.85679668.0233112-3.07946307-1.8616996-4.96434725-1.8848965-1.88499843-4.10757749-2.71848403-4.96437978-1.86168735-.85680233.85679671-.02331124 3.07946307 1.86158529 4.96446151 1.88501079 1.88488418 4.10769169 2.71848407 4.96449409 1.86157309zm-4.3438895-4.34386096c.3597244-.35972206 1.0120963-.22899714 1.5514544.31024311.5393581.53946884.6699696 1.19172218.3102452 1.55144424-.3597245.3596078-1.0120963.22911141-1.5514544-.31024314-.5392438-.53935455-.66985536-1.19172215-.3102452-1.55144421z" fill-rule="nonzero"/><path d="m6.51635487 11.5529285.48866265-.4886666c2.36497798-.0447634 4.41672808-.8057405 6.11998248-2.4484201-1.3701319-.12140367-3.0095198-1.1136581-4.31838516-2.42253419-1.30875227-1.30876302-2.30099857-2.94827755-2.42251427-4.31830761-1.64255305 1.70315534-2.40363694 3.75492231-2.44839993 6.1200328l-.48854959.48855361c-.8462014.84609529-.8462014 2.22313379 0 3.06934209.84608833.8460953 2.22311549.8460953 3.06920382 0z"/><path d="m1.8750572 13.1249428c-.42892773.4290421-.42892773 1.1244337 0 1.5533614s1.12431927.4289277 1.553247 0 .42892773-1.1243193 0-1.5533614c-.0551462-.0550318-.12390738-.0829481-.18671914-.1239074l.50203652-.5020365c-.25788292-.1384376-.50546885-.3025033-.7227358-.5198847-.21738136-.2172669-.38133266-.4648529-.51988467-.7227358l-.50203653.5020365c-.04095924-.0628117-.06887555-.1315729-.12390738-.1867191-.42892773-.4289277-1.12443367-.4289277-1.5533614 0-.42892773.4289277-.42892773 1.1243193 0 1.553247.42892773.4290421 1.12443367.4290421 1.5533614 0z"/></g></svg>