<svg height="14" viewBox="0 0 10 14" width="10" xmlns="http://www.w3.org/2000/svg"><path d="m5.5 7c-.92047458 0-1.66666667-.72753728-1.66666667-1.625 0-.4309768.17559474-.8443019.48815537-1.14904852.31256063-.30474661.73648382-.47595148 1.1785113-.47595148.92047458 0 1.66666667.72753728 1.66666667 1.625 0 .4309768-.17559474.8443019-.48815537 1.14904852-.31256063.30474661-.73648382.47595148-1.1785113.47595148zm0-6.5c-2.76142375 0-5 2.03710439-5 4.55 0 3.4125 5 8.45 5 8.45s5-5.0375 5-8.45c0-2.51289561-2.23857625-4.55-5-4.55z" transform="translate(-.5)"/></svg>